<?xml version="1.0" encoding="UTF-8"?>
<svg xmlns="http://www.w3.org/2000/svg"
     width="22"
     height="22"
     viewBox="326 534.3622 22 22">
  <path
    fill="currentColor"
    d="m 329,539.3622
    0,1 0,0.5 0,1.5 0,0.20508 0,0.29297 0,7.30273
    0,0.19922 0,1 0,0.41992 0,0.58008
    16,0 0,-0.6875 0,-0.3125 0,-12
    -1,0 -11,0 -0.50391,0 -0.45703,0
    -1.53906,0 -0.5,0 -1,0 z

    m 1,1
    1.91211,0
    a 1.500001,1.500001 0 0 1 0.0879,0.5
    1.500001,1.500001 0 0 1 -1.5,1.5
    1.500001,1.500001 0 0 1 -0.5,-0.0879
    l 0,-1.91211 z

    m 2.94727,0
    0.0527,0 11,0 0,11 -14,0
    0,-0.0723 0,-0.0879 0,-0.62304
    2.32617,-2.29883
    1.4082,-1.4043
    1.56446,1.41797
    1.10156,1.06836
    3.59961,-3.39844
    3,2.89063
    0,-1.49219
    -3,-3
    -3.59961,3.59961
    -2.59961,-2.59961
    -3.80078,3.80078
    0,-5.85351
    a 2.5000029,2.5000029 0 0 0 0.5,0.0527
    2.5000029,2.5000029 0 0 0 2.5,-2.5
    2.5000029,2.5000029 0 0 0 -0.0527,-0.5 z"/>
  </svg>
