<?xml version="1.0" encoding="UTF-8"?>
<!DOCTYPE svg PUBLIC "-//W3C//DTD SVG 1.1//EN" "http://www.w3.org/Graphics/SVG/1.1/DTD/svg11.dtd">
<svg xmlns="http://www.w3.org/2000/svg" version="1.1" width="512px" height="512px" style="shape-rendering:geometricPrecision; text-rendering:geometricPrecision; image-rendering:optimizeQuality; fill-rule:evenodd; clip-rule:evenodd" xmlns:xlink="http://www.w3.org/1999/xlink">
<g><path style="opacity:1" fill="#000000" d="M 229.5,-0.5 C 296.167,-0.5 362.833,-0.5 429.5,-0.5C 429.5,9.5 429.5,19.5 429.5,29.5C 403.338,26.8371 382.838,36.1704 368,57.5C 364.468,64.0949 362.135,71.0949 361,78.5C 360.333,102.5 360.333,126.5 361,150.5C 373.61,180.72 385.943,211.053 398,241.5C 417.999,302.408 414.166,361.741 386.5,419.5C 416.993,422.499 435.826,438.832 443,468.5C 444.323,482.799 444.823,497.133 444.5,511.5C 318.5,511.5 192.5,511.5 66.5,511.5C 66.5,501.5 66.5,491.5 66.5,481.5C 105.235,480.911 130.402,462.244 142,425.5C 143.321,314.53 143.988,203.53 144,92.5C 147.641,54.7009 166.141,26.8676 199.5,9C 209.267,4.68694 219.267,1.52027 229.5,-0.5 Z M 242.5,29.5 C 278.168,29.3333 313.835,29.5 349.5,30C 339.716,41.4047 333.549,54.5714 331,69.5C 329.577,92.1317 329.077,114.798 329.5,137.5C 316.454,137.123 303.454,137.623 290.5,139C 262.144,146.689 244.644,164.856 238,193.5C 237.5,204.495 237.333,215.495 237.5,226.5C 253.109,223.101 266.275,227.101 277,238.5C 280.68,243.542 282.68,249.208 283,255.5C 283.5,290.832 283.667,326.165 283.5,361.5C 275.114,361.787 266.781,361.287 258.5,360C 246.042,355.941 238.542,347.441 236,334.5C 235.5,316.836 235.333,299.17 235.5,281.5C 225.167,281.5 214.833,281.5 204.5,281.5C 204.333,299.836 204.5,318.17 205,336.5C 208.13,360.454 220.63,377.454 242.5,387.5C 243.5,418.826 243.833,450.16 243.5,481.5C 210.832,481.667 178.165,481.5 145.5,481C 161.524,464.783 171.024,445.283 174,422.5C 174.333,313.167 174.667,203.833 175,94.5C 181.063,55.6015 203.563,33.9349 242.5,29.5 Z M 299.5,168.5 C 311.171,168.333 322.838,168.5 334.5,169C 347.96,199.757 360.46,230.923 372,262.5C 391.81,344.473 370.31,413.306 307.5,469C 302.009,473.246 296.342,477.246 290.5,481C 285.177,481.499 279.844,481.666 274.5,481.5C 274.5,451.833 274.5,422.167 274.5,392.5C 287.833,392.5 301.167,392.5 314.5,392.5C 314.952,343.145 314.452,293.811 313,244.5C 307.547,220.912 293.381,205.246 270.5,197.5C 272.244,184.88 279.244,176.047 291.5,171C 294.31,170.218 296.977,169.384 299.5,168.5 Z M 366.5,451.5 C 374.84,451.334 383.173,451.5 391.5,452C 405.43,456.781 412.764,466.614 413.5,481.5C 389.164,481.667 364.831,481.5 340.5,481C 350.491,472.185 359.158,462.352 366.5,451.5 Z"/></g>
<g><path style="opacity:1" fill="#000000" d="M 247.5,71.5 C 257.833,71.5 268.167,71.5 278.5,71.5C 278.5,81.8333 278.5,92.1667 278.5,102.5C 268.167,102.5 257.833,102.5 247.5,102.5C 247.5,92.1667 247.5,81.8333 247.5,71.5 Z"/></g>
</svg>
